PathFileType	4	(X/Y/Z)	walk-thru1-4-TP.trc
DataRate	CameraRate	NumFrames	NumMarkers	Units	OrigDataRate	OrigDataStartFrame	OrigNumFrames
120.00	120.00	       4	60	mm	120.00	193	       512
Frame#	Time	Top.Head			Front.Head			Rear.Head			Jaw			C7			R.Clavicle			L.Clavicle			R.Shoulder			L.Shoulder			R.Scapula			L.Scapula			R.Scap.Inf			R.Biceps.Lateral			R.Elbow			R.Elbow.Medial			R.Forearm			R.Ulna			R.Radius			R.Wrist			R.Thumb.M1			R.Thumb.M2			R.Thumb.M3			R.Finger3.M1			R.Finger3.M2			R.Finger3.M3			L.Biceps.Lateral			L.Elbow			L.Elbow.Medial			L.Forearm			L.Ulna			L.Radius			L.Wrist			L.Thumb.M1			L.Thumb.M2			L.Thumb.M3			L.Finger3.M1			L.Finger3.M2			L.Finger3.M3			V.Sacral			R.ASIS			L.ASIS			R.Thigh			R.Thigh.Front			R.Knee			R.Knee.Medial			R.Shank			R.Ankle			R.Ankle.Medial			R.Heel			R.Toe			R.MedFoot			L.Thigh			L.Knee			L.Knee.Medial			L.Shank			L.Ankle			L.Ankle.Medial			L.Heel			L.Toe			L.MedFoot			V_mid_ASIS			V_R_Knee_JC			V_L_Knee_JC			V_R_Elbow_JC			V_L_Elbow_JC			V_R_Ankle_JC			V_L_Ankle_JC			V_R_Wrist_JC			V_L_Wrist_JC			V_R_ScaTrpz_1stMC_JC			V_R_1stMC_1stPP_JC			V_R_1stPP_1stDP_JC			V_R_LunCap_3rdMC_JC			V_R_3rdMC_3rdPP_JC			V_R_3rdPP_3rdMP_JC			V_R_3rdMP_3rdDP_JC			V_L_ScaTrpz_1stMC_JC			V_L_1stMC_1stPP_JC			V_L_1stPP_1stDP_JC			V_L_LunCap_3rdMC_JC			V_L_3rdMC_3rdPP_JC			V_L_3rdPP_3rdMP_JC			V_L_3rdMP_3rdPP_JC			V_ROOT_JC			V_R_Hip_JC			V_L_Hip_JC			V_R_GlenHum_JC			V_L_GlenHum_JC			V_ForeHead_Ctr			V_Vertex			V_Sagit_Lambdoid_Suture			V_R_FrontoTemp			V_L_FrontoTemporal			V_R_ParietalOccip			V_L_ParietalOcciptal			V_R_Temporal			V_L_Temporal			V_mid_FrontRearHead			V_mid_RLGlenHumCtrs			V_C7_vert			V_C1_vert			V_Mid_Hip			
		X1	Y1	Z1	X2	Y2	Z2	X3	Y3	Z3	X4	Y4	Z4	X5	Y5	Z5	X6	Y6	Z6	X7	Y7	Z7	X8	Y8	Z8	X9	Y9	Z9	X10	Y10	Z10	X11	Y11	Z11	X12	Y12	Z12	X13	Y13	Z13	X14	Y14	Z14	X15	Y15	Z15	X16	Y16	Z16	X17	Y17	Z17	X18	Y18	Z18	X19	Y19	Z19	X20	Y20	Z20	X21	Y21	Z21	X22	Y22	Z22	X23	Y23	Z23	X24	Y24	Z24	X25	Y25	Z25	X26	Y26	Z26	X27	Y27	Z27	X28	Y28	Z28	X29	Y29	Z29	X30	Y30	Z30	X31	Y31	Z31	X32	Y32	Z32	X33	Y33	Z33	X34	Y34	Z34	X35	Y35	Z35	X36	Y36	Z36	X37	Y37	Z37	X38	Y38	Z38	X39	Y39	Z39	X40	Y40	Z40	X41	Y41	Z41	X42	Y42	Z42	X43	Y43	Z43	X44	Y44	Z44	X45	Y45	Z45	X46	Y46	Z46	X47	Y47	Z47	X48	Y48	Z48	X49	Y49	Z49	X50	Y50	Z50	X51	Y51	Z51	X52	Y52	Z52	X53	Y53	Z53	X54	Y54	Z54	X55	Y55	Z55	X56	Y56	Z56	X57	Y57	Z57	X58	Y58	Z58	X59	Y59	Z59	X60	Y60	Z60	

193	1.600	-156.40297	-1.79493	1786.79614	-55.61066	4.13592	1675.79944	-282.96408	-1.83590	1688.67358	-101.19772	-2.47607	1508.30273	-297.46960	1.40950	1551.94788	-200.82114	-118.48535	1460.60767	-185.80014	107.84086	1458.54944	-247.88745	-205.65186	1456.02161	-248.31372	207.75435	1467.61877	-350.90060	-86.00901	1470.47351	-343.71548	83.44725	1472.37048	-399.48569	-93.75489	1384.07581	-303.61075	-263.59097	1279.74841	-344.57062	-278.45346	1127.82739	-358.89667	-187.85727	1109.94421	-257.69650	-232.90726	1011.87640	-293.59332	-274.21405	911.94379	-229.35312	-216.68840	881.56104	-235.16266	-256.22400	834.80475	-216.60915	-213.08774	848.62732	-181.84100	-183.52699	803.48566	-143.62146	-184.01617	775.97595	-192.75046	-262.47742	765.31885	-175.17856	-223.69675	712.92456	-186.49634	-179.19038	688.57874	-266.76749	272.59555	1318.86804	-275.34470	318.85245	1144.38806	-325.57263	258.67172	1124.44128	-205.05171	285.18274	1043.64771	-247.72607	310.11353	950.18628	-180.94353	249.46523	905.89496	-180.56946	283.56412	847.89404	-169.48793	234.84387	842.41754	-173.01227	198.27386	793.77344	-162.65474	204.62195	732.58374	-158.55545	296.29852	775.12848	-168.58414	276.20868	718.36523	-190.96843	258.43265	673.61060	-389.22919	6.10145	1073.58008	-302.15091	-183.67691	1016.08417	-291.07977	191.46671	1020.24359	-166.87086	-142.43335	622.25952	-69.93090	-58.98218	580.40546	-111.53574	-111.37019	509.75238	-107.58238	4.03329	511.46246	-53.48656	-71.52309	339.61288	-84.45851	-92.41536	69.36707	-45.95010	-1.40577	98.08028	-131.50864	-28.04377	38.18782	90.70616	-60.55211	69.53993	35.00328	-17.95657	81.18324	-320.20395	170.59419	638.48413	-334.24652	146.52991	486.60269	-321.22662	30.60607	487.68674	-393.81232	84.41465	296.79031	-567.34027	90.78334	98.79322	-523.73651	0.77389	133.56657	-620.32495	28.40134	105.44091	-399.86505	41.25682	43.09148	-451.32373	15.03575	75.04572																																																																																																																															
194	1.608	-149.35649	-2.37085	1788.74158	-49.23210	1.75608	1675.97058	-276.62582	-3.00280	1689.24841	-94.97211	-2.72938	1508.67383	-290.86063	1.12237	1552.33240	-194.35397	-119.91171	1460.35657	-179.24364	107.34177	1458.60205	-240.42195	-206.51042	1455.53381	-243.35583	206.30864	1467.36340	-343.58691	-86.79457	1470.38501	-337.81604	82.26732	1471.72253	-392.61337	-95.41801	1382.94482	-296.75433	-264.37863	1279.09253	-337.09192	-279.78510	1126.66675	-351.03799	-189.87386	1109.86108	-250.70354	-234.46141	1011.05658	-284.91898	-274.31171	910.81323	-220.93076	-218.31931	881.03412	-227.88039	-257.13385	833.56866	-210.37955	-213.32040	847.12018	-174.14749	-183.89374	803.53094	-136.21234	-184.70134	775.52167	-184.43993	-263.99707	764.13373	-168.18701	-225.36514	711.77289	-179.04996	-179.18295	687.91040	-261.88950	271.84708	1318.77295	-270.84628	318.18973	1143.34387	-321.63910	257.84616	1123.64001	-201.60516	284.81641	1042.17737	-244.46663	309.50885	949.56689	-177.63638	249.76477	904.86707	-177.57115	282.31308	847.81537	-166.04842	233.77545	841.87305	-168.16661	198.98289	792.69067	-161.08394	204.32108	731.24091	-155.80714	296.87186	774.68365	-166.84993	276.70447	717.38129	-188.48204	258.95227	672.46307	-381.97647	5.08039	1072.77075	-291.53891	-185.90430	1014.69861	-284.73401	191.46490	1020.05640	-158.68546	-141.49275	622.09235	-62.49337	-56.51189	581.47638	-102.29297	-111.10696	510.73633	-101.45474	4.99274	511.40332	-46.96440	-69.38789	339.56140	-81.48180	-93.49773	69.64872	-44.84789	-0.79087	96.88874	-130.09404	-29.39210	39.13167	93.18178	-54.01428	64.55661	36.70805	-17.12475	79.73310	-312.73444	170.94861	638.18079	-326.67493	147.96791	486.06644	-312.89023	31.78433	486.73355	-388.79584	86.09662	296.50110	-565.93140	91.08498	101.60943	-520.89746	1.37123	135.74380	-618.30737	29.28552	110.08134	-399.76111	41.14146	43.20801	-449.83420	15.14730	75.96474																																																																																																																															
195	1.617	-144.27052	-5.43819	1788.24976	-43.33669	1.49327	1675.76306	-270.37085	-4.10058	1688.89233	-87.75629	-2.98746	1509.22510	-282.80820	-0.34917	1551.20850	-186.07208	-121.53936	1459.75354	-173.43834	105.71840	1458.20447	-233.17186	-208.09026	1454.93079	-236.24034	204.46817	1466.98694	-336.61676	-89.46146	1470.38293	-330.75821	80.89967	1472.17822	-385.71109	-96.82712	1382.84460	-288.74490	-265.54562	1278.08765	-329.15494	-279.68707	1126.42273	-343.16376	-191.78676	1108.62122	-242.58032	-235.03024	1010.08105	-278.26572	-276.90686	910.36664	-213.32683	-218.12671	880.23651	-219.97316	-257.72104	833.29523	-202.52667	-212.82932	846.03265	-165.03407	-185.38686	802.93494	-128.72493	-184.31786	775.10480	-177.73769	-264.33215	763.70258	-160.07332	-225.31746	711.20264	-172.59584	-181.00044	686.54169	-256.31284	270.71146	1318.33398	-266.00409	316.62872	1143.79346	-316.42334	256.79675	1124.46423	-197.59969	283.25150	1043.06226	-240.54536	308.62918	948.93445	-173.98428	250.05261	904.11865	-174.72377	283.23853	847.28705	-163.34488	234.47525	840.70441	-167.69624	199.74297	791.72217	-158.69104	204.18594	729.90527	-153.66368	296.06967	773.73370	-164.65126	276.81860	716.30640	-186.15282	259.02127	672.19006	-374.80450	4.00862	1073.18506	-286.02383	-184.89474	1015.09741	-277.86322	190.48045	1020.12207	-150.79187	-141.08058	622.45618	-54.10304	-53.97930	582.81226	-92.56142	-110.33431	511.99896	-95.88035	5.87960	512.20654	-40.36289	-68.88640	339.69464	-79.47749	-93.20480	69.93064	-44.48100	-0.14378	96.34354	-129.34099	-30.38574	40.03830	94.81007	-52.16716	62.81861	38.48128	-14.35966	76.87225	-304.90341	171.41623	637.73206	-318.62347	148.67610	485.40570	-303.96274	33.25238	486.08749	-383.14679	87.41402	297.06125	-563.10211	91.42767	106.06914	-518.27753	2.02434	137.80121	-615.91852	29.53499	114.15040	-399.63947	41.13402	43.01252	-448.52881	16.04474	76.75168																																																																																																																															
196	1.625	-138.02304	-4.94114	1789.50403	-37.38395	0.55125	1677.28979	-264.17648	-6.19226	1689.07825	-80.29594	-5.26095	1509.39209	-275.63660	-0.58493	1552.23816	-179.51752	-122.99361	1459.94128	-166.13680	106.44186	1458.95935	-226.33511	-208.42477	1454.40527	-230.95688	203.73940	1467.14075	-329.90497	-90.13363	1469.58752	-324.20840	78.26625	1472.20703	-378.81256	-98.05123	1382.72083	-282.23492	-266.39841	1277.93652	-321.14313	-282.22037	1126.07239	-335.42917	-192.25786	1107.33179	-234.39079	-236.69370	1009.76575	-269.78705	-275.93530	909.67529	-206.07431	-219.50110	879.85925	-211.85889	-258.10254	832.24329	-194.91045	-213.38026	845.66345	-155.55841	-186.11339	801.18787	-121.50751	-185.15726	773.95984	-169.59442	-265.00436	763.45630	-152.87901	-225.35287	710.26978	-164.54053	-181.28891	687.32880	-251.14214	268.51309	1319.49963	-261.58090	316.23645	1144.13074	-311.45779	254.98022	1124.81201	-193.43153	282.97952	1042.29871	-237.51147	308.12418	949.05737	-171.83795	248.82892	903.85333	-172.58948	283.04459	846.70105	-159.89059	234.98441	840.29578	-165.10860	200.37987	791.50952	-155.87045	204.81340	729.13678	-150.62994	296.45810	772.76221	-161.83688	276.83774	715.85577	-184.40938	259.35236	671.85040	-367.99652	2.88940	1073.26416	-275.97180	-186.40529	1016.00262	-270.98795	189.42310	1018.91626	-141.19730	-141.39293	624.51953	-45.35971	-52.19526	583.55542	-82.66702	-110.45524	513.14777	-89.47518	6.54155	513.17755	-33.95432	-66.52053	338.70062	-78.17079	-92.91869	70.43384	-42.55715	0.62312	95.90221	-128.26794	-29.92177	40.68462	98.73199	-53.94637	60.52219	39.76107	-13.56470	75.49799	-296.85388	172.28470	637.11584	-309.38678	149.97409	484.98401	-294.13016	32.38861	485.13745	-377.35522	88.64290	297.20276	-561.35712	90.96186	108.85809	-514.35828	3.28336	140.87404	-612.82837	29.47624	119.86248	-399.52716	41.08928	43.31504	-447.01819	16.94770	77.25944																																																																																																																															
